<svg width="81" height="39" viewBox="0 0 81 39" fill="none" xmlns="http://www.w3.org/2000/svg">
<path d="M36.92 27L36.92 21.14L32 12.6L35.18 12.6L38.3 18.02L41.42 12.6L44.6 12.6L39.68 21.14L39.68 27L36.92 27ZM48.7561 27.3C47.6694 27.3 46.7161 27.0567 45.8961 26.57C45.0761 26.0833 44.4361 25.4133 43.9761 24.56C43.5228 23.7 43.2961 22.7133 43.2961 21.6C43.2961 20.4733 43.5294 19.4833 43.9961 18.63C44.4628 17.77 45.1061 17.1 45.9261 16.62C46.7461 16.14 47.6894 15.9 48.7561 15.9C49.8428 15.9 50.7961 16.1433 51.6161 16.63C52.4428 17.1167 53.0861 17.79 53.5461 18.65C54.0061 19.5033 54.2361 20.4867 54.2361 21.6C54.2361 22.72 54.0028 23.71 53.5361 24.57C53.0761 25.4233 52.4328 26.0933 51.6061 26.58C50.7861 27.06 49.8361 27.3 48.7561 27.3ZM48.7561 24.76C49.6294 24.76 50.2794 24.4667 50.7061 23.88C51.1394 23.2867 51.3561 22.5267 51.3561 21.6C51.3561 20.64 51.1361 19.8733 50.6961 19.3C50.2628 18.7267 49.6161 18.44 48.7561 18.44C48.1628 18.44 47.6761 18.5733 47.2961 18.84C46.9161 19.1067 46.6328 19.4767 46.4461 19.95C46.2661 20.4233 46.1761 20.9733 46.1761 21.6C46.1761 22.5667 46.3928 23.3367 46.8261 23.91C47.2661 24.4767 47.9094 24.76 48.7561 24.76ZM59.9552 27.32C59.1085 27.32 58.4185 27.1767 57.8852 26.89C57.3518 26.6033 56.9352 26.24 56.6352 25.8C56.3418 25.36 56.1318 24.9033 56.0052 24.43C55.8785 23.95 55.8018 23.5133 55.7752 23.12C55.7485 22.7267 55.7352 22.44 55.7352 22.26L55.7352 16.2L58.4952 16.2L58.4952 21.3C58.4952 21.5467 58.5085 21.8633 58.5352 22.25C58.5618 22.63 58.6452 23.0133 58.7852 23.4C58.9252 23.7867 59.1518 24.11 59.4652 24.37C59.7852 24.63 60.2352 24.76 60.8152 24.76C61.0485 24.76 61.2985 24.7233 61.5652 24.65C61.8318 24.5767 62.0818 24.4367 62.3152 24.23C62.5485 24.0167 62.7385 23.7067 62.8852 23.3C63.0385 22.8867 63.1152 22.3467 63.1152 21.68L64.6752 22.42C64.6752 23.2733 64.5018 24.0733 64.1552 24.82C63.8085 25.5667 63.2852 26.17 62.5852 26.63C61.8918 27.09 61.0152 27.32 59.9552 27.32ZM63.4552 27L63.4552 23.42L63.1152 23.42L63.1152 16.2L65.8552 16.2L65.8552 27L63.4552 27ZM66.95 27L71.79 19.72L67.09 12.6L70.43 12.6L73.49 17.4L76.51 12.6L79.87 12.6L75.17 19.72L79.99 27L76.65 27L73.49 22.04L70.31 27L66.95 27Z" fill="#DEDEDE"/>
<path d="M11.3938 25.4538L17.7277 7.23077H22.6108L14.0123 32H8.81077L0.212308 7.23077H5.09538L11.3938 25.4538Z" fill="#DEDEDE"/>
<path d="M11.6062 13.3923L5.27231 31.6154L0.389233 31.6154L8.9877 6.84619L14.1892 6.84619L22.7877 31.6154L17.9046 31.6154L11.6062 13.3923Z" fill="#DEDEDE"/>
</svg>
