<svg width="66" height="65" viewBox="0 0 66 65" fill="none" xmlns="http://www.w3.org/2000/svg">
<path d="M63.0217 0H3.22167C1.78355 0 0.621674 1.16187 0.621674 2.6V62.4C0.621674 63.8381 1.78355 65 3.22167 65H63.0217C64.4598 65 65.6217 63.8381 65.6217 62.4V2.6C65.6217 1.16187 64.4598 0 63.0217 0ZM19.9023 55.3881H10.2579V24.3669H19.9023V55.3881ZM15.0842 20.1256C13.9786 20.1256 12.8978 19.7978 11.9785 19.1835C11.0593 18.5693 10.3428 17.6963 9.91969 16.6748C9.49659 15.6534 9.38589 14.5294 9.60158 13.4451C9.81728 12.3607 10.3497 11.3647 11.1314 10.5829C11.9132 9.80112 12.9093 9.26873 13.9936 9.05303C15.078 8.83734 16.2019 8.94804 17.2234 9.37114C18.2448 9.79423 19.1179 10.5107 19.7321 11.43C20.3463 12.3493 20.6742 13.43 20.6742 14.5356C20.666 17.6231 18.1635 20.1256 15.0842 20.1256ZM56.0098 55.3881H46.3735V40.3C46.3735 36.7006 46.3086 32.0775 41.3604 32.0775C36.3473 32.0775 35.5754 35.9937 35.5754 40.04V55.3881H25.9473V24.3669H35.1935V28.6081H35.3235C36.6073 26.1706 39.7517 23.595 44.4479 23.595C54.2142 23.595 56.0098 30.0219 56.0098 38.3744V55.3881Z" fill="#959595"/>
</svg>
