<svg width="92" height="65" viewBox="0 0 92 65" fill="none" xmlns="http://www.w3.org/2000/svg">
<path d="M91.0669 7.71019C87.7408 9.01311 84.1678 9.89346 80.4115 10.2914C84.2873 8.24119 87.1869 5.01443 88.5694 1.21319C84.928 3.12528 80.9427 4.47118 76.7867 5.19238C73.9919 2.55437 70.2902 0.805855 66.2561 0.218301C62.2221 -0.369254 58.0814 0.237026 54.4771 1.94301C50.8727 3.649 48.0063 6.35924 46.3229 9.65296C44.6395 12.9467 44.2332 16.6396 45.1671 20.1584C37.7888 19.8309 30.5708 18.1355 23.9815 15.1823C17.3923 12.2291 11.5792 8.08402 6.9193 3.01615C5.32597 5.44592 4.40981 8.26305 4.40981 11.2633C4.40803 13.9642 5.1604 16.6237 6.60015 19.0059C8.03991 21.3881 10.1225 23.4193 12.6632 24.9193C9.71669 24.8364 6.83515 24.1326 4.25844 22.8663V23.0776C4.25815 26.8657 5.74037 30.5373 8.45361 33.4693C11.1668 36.4013 14.944 38.4131 19.1441 39.1634C16.4107 39.8174 13.5449 39.9137 10.7632 39.4451C11.9482 42.7046 14.2566 45.5549 17.365 47.5969C20.4735 49.639 24.2265 50.7706 28.0986 50.8334C21.5255 55.395 13.4077 57.8694 5.05112 57.8586C3.57085 57.8589 2.09182 57.7825 0.621674 57.6297C9.10406 62.4511 18.9782 65.0099 29.0626 65C63.1996 65 81.8615 40.005 81.8615 18.3272C81.8615 17.623 81.8415 16.9116 81.8057 16.2073C85.4357 13.8866 88.569 11.0129 91.0589 7.72075L91.0669 7.71019V7.71019Z" fill="#959595"/>
</svg>
