<svg width="66" height="65" viewBox="0 0 66 65" fill="none" xmlns="http://www.w3.org/2000/svg">
<path fill-rule="evenodd" clip-rule="evenodd" d="M48.0986 38.9513C47.2916 38.5478 43.3347 36.6032 42.598 36.3323C41.8614 36.0642 41.3251 35.9315 40.7862 36.7386C40.2499 37.5403 38.7089 39.3548 38.2403 39.8911C37.7691 40.43 37.3005 40.495 36.4962 40.0942C35.6918 39.688 33.0972 38.8403 30.0233 36.0994C27.6318 33.9653 26.0149 31.3301 25.5464 30.523C25.0778 29.7186 25.4949 29.2826 25.8985 28.8817C26.2614 28.5215 26.7028 27.9419 27.1064 27.4734C27.5099 27.0021 27.6426 26.6663 27.9108 26.1274C28.1816 25.5911 28.0462 25.1226 27.843 24.719C27.6426 24.3155 26.0339 20.3532 25.3622 18.7417C24.7095 17.1736 24.046 17.3876 23.5531 17.3605C23.0818 17.3388 22.5456 17.3334 22.0093 17.3334C21.4731 17.3334 20.601 17.5338 19.8643 18.3409C19.1249 19.1453 17.0476 21.0926 17.0476 25.0549C17.0476 29.0144 19.9293 32.8413 20.3329 33.3803C20.7364 33.9165 26.0068 42.0469 34.0803 45.5325C36.0032 46.3613 37.5009 46.8569 38.6682 47.2252C40.5966 47.84 42.3516 47.7534 43.7382 47.5448C45.282 47.3146 48.4995 45.5975 49.1711 43.718C49.8401 41.8384 49.8401 40.2269 49.6397 39.8911C49.4393 39.5553 48.903 39.3548 48.0959 38.9513H48.0986ZM33.4141 59.001H33.4032C28.608 59.0019 23.9007 57.7129 19.7749 55.269L18.7999 54.6894L8.66537 57.349L11.371 47.469L10.7345 46.4561C8.05366 42.1887 6.63492 37.2499 6.64225 32.2103C6.64766 17.4499 18.6564 5.44114 33.4249 5.44114C40.5749 5.44114 47.297 8.23072 52.3507 13.2899C54.8434 15.7723 56.8191 18.7243 58.1635 21.9752C59.508 25.2261 60.1944 28.7113 60.1832 32.2292C60.1778 46.9896 48.1691 59.001 33.4141 59.001V59.001ZM56.1965 9.44676C53.2125 6.44302 49.662 4.06135 45.7508 2.43977C41.8395 0.818199 37.6454 -0.0110398 33.4114 0.000110981C15.661 0.000110981 1.20934 14.449 1.20392 32.2076C1.20121 37.8842 2.68267 43.4255 5.50204 48.3086L0.93309 65L18.0064 60.5204C22.7294 63.0937 28.022 64.442 33.4005 64.4421H33.4141C51.1645 64.4421 65.6161 49.9932 65.6215 32.2319C65.6346 27.9996 64.8084 23.8066 63.1906 19.8956C61.5728 15.9846 59.1956 12.4332 56.1965 9.44676" fill="#959595"/>
</svg>
